# xmcd
# Track frame offsets:
# 150
# 21133
# 41502
# 57004
# 75130
# 91845
# 108129
# 124041
# 144084
# 164872
# 180665
# 201021
# 218388
# 231860
# 246380
#
# Disc length: 3454 seconds
# Revision: 0
# Processed by: cddbd v1.5.1PL0 Copyright (c) Steve Scherf et al.
# Submitted via: VisiTrax 2.9.10.228 - For more info visit www.synapsa.com
#
DISCID=b60d7c0f
DTITLE=Restless Heart - CB90028
DYEAR=1900
DGENRE=Karaoke
TTITLE0=Bluest Eyes In Texas, The
TTITLE1=Danny's Dream
TTITLE2=No End To This Road
TTITLE3=When She Cries
TTITLE4=When Somebody Loves You
TTITLE5=Tender Lie, A
TTITLE6=Big Dreams In A Small Town
TTITLE7=Familiar Pain
TTITLE8=Fast Moving Train
TTITLE9=I've Never Been So Sure
TTITLE10=I'll Still Be Loving You
TTITLE11=New York Hold Her Tight
TTITLE12=We Got The Love
TTITLE13=Why Does It Have To Be Wrong Or Right
TTITLE14=You Can Depend On Me
EXTD=
EXTT0=
EXTT1=
EXTT2=
EXTT3=
EXTT4=
EXTT5=
EXTT6=
EXTT7=
EXTT8=
EXTT9=
EXTT10=
EXTT11=
EXTT12=
EXTT13=
EXTT14=
PLAYORDER=
